<?xml version="1.0" standalone="no"?>
<!DOCTYPE svg PUBLIC "-//W3C//DTD SVG 20010904//EN"
 "http://www.w3.org/TR/2001/REC-SVG-20010904/DTD/svg10.dtd">
<svg version="1.0" xmlns="http://www.w3.org/2000/svg"
 width="473.000000pt" height="334.000000pt" viewBox="0 0 473.000000 334.000000"
 preserveAspectRatio="xMidYMid meet">

<g transform="translate(0.000000,334.000000) scale(0.100000,-0.100000)"
fill="#000000" stroke="none">
<path d="M2205 3244 c-583 -90 -958 -420 -1041 -914 -28 -170 -10 -494 36
-629 10 -32 43 -107 73 -167 69 -139 101 -221 131 -331 l24 -88 7 50 c9 58 12
428 5 558 l-5 88 80 32 c146 59 282 146 393 250 29 28 54 48 57 45 8 -7 -15
-68 -41 -110 -27 -42 -84 -103 -134 -141 -19 -14 -32 -28 -30 -31 3 -2 75 17
160 43 253 77 420 154 600 276 61 40 110 70 110 65 0 -16 -89 -126 -146 -181
-61 -58 -178 -140 -251 -178 -24 -12 -43 -24 -43 -26 0 -8 40 3 191 51 322
103 617 248 844 413 38 28 73 51 77 51 5 0 8 -21 8 -47 0 -62 -31 -128 -114
-243 -53 -74 -106 -177 -106 -207 0 -4 15 7 33 24 40 38 55 46 164 84 48 17
94 36 101 42 20 16 32 -9 32 -63 0 -25 15 -151 34 -280 19 -129 38 -289 42
-355 l7 -120 38 146 c20 80 65 239 99 354 93 314 103 366 103 530 0 202 -32
312 -127 428 l-47 58 43 18 c24 10 52 21 62 25 10 4 17 8 15 11 -4 3 -56 -7
-129 -26 -12 -3 -16 13 -21 81 -6 72 -21 140 -31 140 -2 0 -2 -30 0 -67 l2
-68 -22 30 c-189 254 -561 396 -1028 394 -91 -1 -205 -7 -255 -15z"/>
<path d="M1715 1746 c-22 -22 -25 -34 -25 -96 0 -63 -3 -74 -25 -94 -14 -13
-25 -28 -25 -34 0 -6 11 -22 25 -36 22 -22 25 -34 25 -93 0 -82 17 -113 61
-113 36 0 40 26 5 40 -22 8 -24 15 -28 83 -2 56 -8 81 -22 96 -19 20 -19 22
-1 42 14 14 21 42 25 97 4 68 8 78 28 87 12 5 21 17 20 25 -5 25 -36 23 -63
-4z"/>
<path d="M2200 1751 c0 -12 6 -21 14 -21 23 0 30 -19 37 -97 4 -49 12 -79 23
-92 18 -19 17 -21 -3 -47 -16 -20 -21 -41 -21 -88 0 -65 -5 -79 -32 -89 -10
-3 -18 -14 -18 -22 0 -12 8 -15 32 -13 42 4 58 35 58 116 0 54 4 67 25 88 31
31 32 47 3 66 -19 13 -23 27 -28 97 -7 87 -16 105 -62 116 -24 6 -28 4 -28
-14z"/>
<path d="M2663 1760 c-26 -11 -43 -64 -43 -137 0 -43 -4 -55 -25 -71 -30 -24
-32 -48 -5 -57 22 -7 27 -22 34 -113 5 -73 24 -102 68 -102 35 0 37 23 4 38
-21 9 -24 20 -31 87 -5 57 -12 81 -27 95 l-20 19 21 27 c11 15 21 39 21 54 0
75 12 118 37 129 45 21 13 50 -34 31z"/>
<path d="M3137 1763 c-13 -13 -7 -28 16 -38 19 -9 23 -20 29 -83 5 -57 11 -79
29 -98 21 -22 21 -25 6 -37 -24 -18 -37 -61 -37 -123 0 -49 -3 -55 -25 -64
-35 -13 -33 -40 3 -40 38 0 62 28 62 72 0 82 12 129 36 140 29 14 31 44 4 53
-24 8 -40 61 -40 132 0 44 -4 55 -26 72 -27 22 -46 26 -57 14z"/>
<path d="M2447 1664 c-4 -4 -7 -74 -7 -156 0 -115 3 -149 13 -146 9 3 13 44
15 148 2 132 -3 172 -21 154z"/>
<path d="M1925 1585 c-19 -18 -25 -35 -25 -65 0 -55 34 -90 88 -90 57 0 94 39
90 94 -3 34 -7 42 -27 44 -13 2 -26 12 -28 23 -8 29 -67 26 -98 -6z"/>
<path d="M2856 1579 c-35 -41 -34 -83 3 -120 67 -67 176 -9 156 83 -5 21 -12
28 -31 28 -17 0 -24 6 -24 20 0 17 -7 20 -39 20 -32 0 -44 -6 -65 -31z"/>
<path d="M800 742 c0 -16 -20 -143 -45 -284 -25 -141 -45 -261 -45 -267 0 -6
17 -11 39 -11 35 0 39 3 44 30 4 16 4 37 1 45 -5 12 4 15 50 15 60 0 76 -13
76 -64 0 -24 4 -26 40 -26 22 0 40 3 40 8 2 32 -96 569 -104 574 -6 4 -30 8
-53 8 -40 0 -43 -2 -43 -28z m80 -272 c6 -47 14 -93 17 -102 4 -15 -3 -18 -40
-18 l-44 0 13 83 c23 143 25 153 34 137 4 -8 13 -53 20 -100z"/>
<path d="M1150 476 l0 -296 41 0 41 0 -4 120 -3 120 86 0 c53 0 90 5 97 12 8
8 12 58 12 159 0 124 -3 149 -17 160 -11 10 -53 15 -135 17 l-118 4 0 -296z
m188 201 c6 -6 11 -49 11 -95 l0 -82 -59 0 -59 0 -3 91 c-2 50 -1 93 1 95 10
10 100 3 109 -9z"/>
<path d="M1586 738 c10 -57 13 -61 41 -55 54 10 53 14 53 -254 l0 -249 40 0
41 0 -2 253 -1 252 46 3 c45 3 46 4 46 36 0 22 -6 36 -16 40 -9 3 -69 6 -135
6 l-118 0 5 -32z"/>
<path d="M2010 766 c-3 -2 -4 -135 -2 -295 l3 -291 39 0 40 0 -2 293 -3 292
-35 3 c-20 2 -38 1 -40 -2z"/>
<path d="M2244 753 c6 -20 96 -549 96 -564 0 -5 23 -9 50 -9 28 0 50 1 50 3 0
2 16 93 36 202 53 297 64 368 58 377 -7 11 -62 10 -69 -2 -5 -9 -65 -333 -65
-355 0 -6 -3 -6 -9 0 -5 6 -21 84 -36 175 -16 91 -33 171 -38 178 -5 6 -25 12
-44 12 -28 0 -33 -3 -29 -17z"/>
<path d="M2730 757 l-25 -13 -3 -269 c-2 -245 -1 -271 15 -283 11 -8 52 -12
116 -12 l98 0 -3 37 -3 38 -75 5 -75 5 0 210 0 210 78 3 77 3 0 33 c0 22 -6
36 -16 40 -28 11 -158 6 -184 -7z"/>
<path d="M3120 758 l-25 -14 -3 -266 c-2 -232 0 -268 14 -282 24 -25 205 -23
227 2 15 16 17 50 17 273 0 205 -3 259 -14 275 -12 16 -29 19 -103 22 -58 2
-96 -2 -113 -10z m148 -286 l2 -213 -52 3 -53 3 -2 200 c-1 110 0 206 3 213 2
9 19 12 51 10 l48 -3 3 -213z"/>
<path d="M3510 476 l0 -296 113 0 c75 0 119 4 130 13 15 11 17 40 17 276 1
228 -1 267 -15 280 -12 12 -43 17 -130 19 l-115 4 0 -296z m178 206 c9 -7 12
-56 10 -213 l-3 -204 -52 -3 -52 -3 -3 211 c-2 117 -1 214 1 216 8 7 86 4 99
-4z"/>
<path d="M3939 766 c-2 -2 -3 -135 -1 -295 l3 -291 114 0 115 0 0 40 0 40 -75
0 -75 0 0 69 c0 38 -3 76 -6 85 -5 14 4 16 61 16 l66 0 -3 38 -3 37 -57 3 -58
3 0 79 c0 44 0 83 0 88 0 4 34 8 76 10 l75 3 -3 37 -3 37 -111 3 c-60 1 -112
1 -115 -2z"/>
</g>
</svg>
